
<svg xmlns="http://www.w3.org/2000/svg" viewBox="0 0 100 100">
  <defs>
    <radialGradient id="blueGradient" cx="50%" cy="50%" r="50%">
      <stop offset="0%" style="stop-color:#4A90E2;stop-opacity:1" />
      <stop offset="100%" style="stop-color:#2E7BD6;stop-opacity:1" />
    </radialGradient>
  </defs>
  
  <!-- Flower-like star shape -->
  <path d="M50 5 
           C52 10, 58 10, 60 5
           C65 7, 70 13, 75 10
           C77 15, 83 20, 80 25
           C85 27, 90 33, 87 38
           C92 40, 97 46, 94 51
           C97 53, 97 59, 94 61
           C97 66, 92 72, 87 70
           C90 75, 85 81, 80 78
           C83 83, 77 88, 75 85
           C70 90, 65 84, 60 87
           C58 92, 52 92, 50 87
           C48 92, 42 92, 40 87
           C35 84, 30 90, 25 85
           C23 88, 17 83, 20 78
           C15 81, 10 75, 13 70
           C8 72, 3 66, 6 61
           C3 59, 3 53, 6 51
           C3 46, 8 40, 13 42
           C10 37, 15 31, 20 34
           C17 29, 23 24, 25 29
           C30 26, 35 32, 40 29
           C42 24, 48 24, 50 29
           Z" 
        fill="url(#blueGradient)" 
        stroke="#2E7BD6" 
        stroke-width="1"/>
  
  <!-- White checkmark -->
  <path d="M35 50 L45 60 L65 40" 
        stroke="white" 
        stroke-width="4" 
        fill="none" 
        stroke-linecap="round" 
        stroke-linejoin="round"/>
</svg>
